<svg width="116" height="38" viewBox="0 0 116 38" fill="none" xmlns="http://www.w3.org/2000/svg">
<path d="M38.9043 23.085V22.5234C38.9043 20.6191 39.181 18.8532 39.7344 17.2256C40.2878 15.5817 41.0853 14.1576 42.127 12.9531C43.1849 11.7324 44.4707 10.7884 45.9844 10.1211C47.5143 9.4375 49.2396 9.0957 51.1602 9.0957C53.097 9.0957 54.8223 9.4375 56.3359 10.1211C57.8659 10.7884 59.1598 11.7324 60.2178 12.9531C61.2757 14.1576 62.0814 15.5817 62.6348 17.2256C63.1882 18.8532 63.4648 20.6191 63.4648 22.5234V23.085C63.4648 24.9893 63.1882 26.7552 62.6348 28.3828C62.0814 30.0104 61.2757 31.4346 60.2178 32.6553C59.1598 33.8597 57.874 34.8037 56.3604 35.4873C54.8467 36.1546 53.1296 36.4883 51.209 36.4883C49.2721 36.4883 47.5387 36.1546 46.0088 35.4873C44.4951 34.8037 43.2093 33.8597 42.1514 32.6553C41.0934 31.4346 40.2878 30.0104 39.7344 28.3828C39.181 26.7552 38.9043 24.9893 38.9043 23.085ZM44.7881 22.5234V23.085C44.7881 24.2731 44.9102 25.3962 45.1543 26.4541C45.3984 27.512 45.7809 28.4398 46.3018 29.2373C46.8226 30.0348 47.4899 30.6615 48.3037 31.1172C49.1175 31.5729 50.0859 31.8008 51.209 31.8008C52.2995 31.8008 53.2435 31.5729 54.041 31.1172C54.8548 30.6615 55.5221 30.0348 56.043 29.2373C56.5638 28.4398 56.9463 27.512 57.1904 26.4541C57.4508 25.3962 57.5811 24.2731 57.5811 23.085V22.5234C57.5811 21.3516 57.4508 20.2448 57.1904 19.2031C56.9463 18.1452 56.5557 17.2093 56.0186 16.3955C55.4977 15.5817 54.8304 14.9469 54.0166 14.4912C53.2191 14.0192 52.2669 13.7832 51.1602 13.7832C50.0534 13.7832 49.0931 14.0192 48.2793 14.4912C47.4818 14.9469 46.8226 15.5817 46.3018 16.3955C45.7809 17.2093 45.3984 18.1452 45.1543 19.2031C44.9102 20.2448 44.7881 21.3516 44.7881 22.5234ZM72.3516 9.584L77.3809 18.3486L82.5078 9.584H88.9775L80.9697 22.5479L89.2949 36H82.8252L77.4541 26.8691L72.083 36H65.5889L73.8896 22.5479L65.9062 9.584H72.3516ZM91.1992 23.085V22.5234C91.1992 20.6191 91.4759 18.8532 92.0293 17.2256C92.5827 15.5817 93.3802 14.1576 94.4219 12.9531C95.4798 11.7324 96.7656 10.7884 98.2793 10.1211C99.8092 9.4375 101.535 9.0957 103.455 9.0957C105.392 9.0957 107.117 9.4375 108.631 10.1211C110.161 10.7884 111.455 11.7324 112.513 12.9531C113.571 14.1576 114.376 15.5817 114.93 17.2256C115.483 18.8532 115.76 20.6191 115.76 22.5234V23.085C115.76 24.9893 115.483 26.7552 114.93 28.3828C114.376 30.0104 113.571 31.4346 112.513 32.6553C111.455 33.8597 110.169 34.8037 108.655 35.4873C107.142 36.1546 105.424 36.4883 103.504 36.4883C101.567 36.4883 99.8337 36.1546 98.3037 35.4873C96.79 34.8037 95.5042 33.8597 94.4463 32.6553C93.3883 31.4346 92.5827 30.0104 92.0293 28.3828C91.4759 26.7552 91.1992 24.9893 91.1992 23.085ZM97.083 22.5234V23.085C97.083 24.2731 97.2051 25.3962 97.4492 26.4541C97.6934 27.512 98.0758 28.4398 98.5967 29.2373C99.1175 30.0348 99.7848 30.6615 100.599 31.1172C101.412 31.5729 102.381 31.8008 103.504 31.8008C104.594 31.8008 105.538 31.5729 106.336 31.1172C107.15 30.6615 107.817 30.0348 108.338 29.2373C108.859 28.4398 109.241 27.512 109.485 26.4541C109.746 25.3962 109.876 24.2731 109.876 23.085V22.5234C109.876 21.3516 109.746 20.2448 109.485 19.2031C109.241 18.1452 108.851 17.2093 108.313 16.3955C107.793 15.5817 107.125 14.9469 106.312 14.4912C105.514 14.0192 104.562 13.7832 103.455 13.7832C102.348 13.7832 101.388 14.0192 100.574 14.4912C99.7767 14.9469 99.1175 15.5817 98.5967 16.3955C98.0758 17.2093 97.6934 18.1452 97.4492 19.2031C97.2051 20.2448 97.083 21.3516 97.083 22.5234Z" fill="#44588F"/>
<path d="M4.54639 18.7592V37.5192H12.712V30.6224L4.54639 18.7592Z" fill="#6659FF"/>
<path d="M27.9694 25.4594C32.8474 23.3687 35.6882 19.2416 35.6882 13.6144C35.6882 5.1993 29.4167 0 19.394 0H0L11.8363 15.3965V7.0753H18.9116C24.2174 7.0753 26.898 9.4866 26.898 13.6144C26.898 17.6878 24.2174 20.1536 18.9116 20.1536H15.0285L27.0583 37.52H36.3854L27.9694 25.4594Z" fill="#44588F"/>
</svg>