<svg width="118" height="59" viewBox="0 0 118 59" fill="none" xmlns="http://www.w3.org/2000/svg">
<path d="M38.9043 34.085V33.5234C38.9043 31.6191 39.181 29.8532 39.7344 28.2256C40.2878 26.5817 41.0853 25.1576 42.127 23.9531C43.1849 22.7324 44.4707 21.7884 45.9844 21.1211C47.5143 20.4375 49.2396 20.0957 51.1602 20.0957C53.097 20.0957 54.8223 20.4375 56.3359 21.1211C57.8659 21.7884 59.1598 22.7324 60.2178 23.9531C61.2757 25.1576 62.0814 26.5817 62.6348 28.2256C63.1882 29.8532 63.4648 31.6191 63.4648 33.5234V34.085C63.4648 35.9893 63.1882 37.7552 62.6348 39.3828C62.0814 41.0104 61.2757 42.4346 60.2178 43.6553C59.1598 44.8597 57.874 45.8037 56.3604 46.4873C54.8467 47.1546 53.1296 47.4883 51.209 47.4883C49.2721 47.4883 47.5387 47.1546 46.0088 46.4873C44.4951 45.8037 43.2093 44.8597 42.1514 43.6553C41.0934 42.4346 40.2878 41.0104 39.7344 39.3828C39.181 37.7552 38.9043 35.9893 38.9043 34.085ZM44.7881 33.5234V34.085C44.7881 35.2731 44.9102 36.3962 45.1543 37.4541C45.3984 38.512 45.7809 39.4398 46.3018 40.2373C46.8226 41.0348 47.4899 41.6615 48.3037 42.1172C49.1175 42.5729 50.0859 42.8008 51.209 42.8008C52.2995 42.8008 53.2435 42.5729 54.041 42.1172C54.8548 41.6615 55.5221 41.0348 56.043 40.2373C56.5638 39.4398 56.9463 38.512 57.1904 37.4541C57.4508 36.3962 57.5811 35.2731 57.5811 34.085V33.5234C57.5811 32.3516 57.4508 31.2448 57.1904 30.2031C56.9463 29.1452 56.5557 28.2093 56.0186 27.3955C55.4977 26.5817 54.8304 25.9469 54.0166 25.4912C53.2191 25.0192 52.2669 24.7832 51.1602 24.7832C50.0534 24.7832 49.0931 25.0192 48.2793 25.4912C47.4818 25.9469 46.8226 26.5817 46.3018 27.3955C45.7809 28.2093 45.3984 29.1452 45.1543 30.2031C44.9102 31.2448 44.7881 32.3516 44.7881 33.5234ZM72.3516 20.584L77.3809 29.3486L82.5078 20.584H88.9775L80.9697 33.5479L89.2949 47H82.8252L77.4541 37.8691L72.083 47H65.5889L73.8896 33.5479L65.9062 20.584H72.3516ZM91.1992 34.085V33.5234C91.1992 31.6191 91.4759 29.8532 92.0293 28.2256C92.5827 26.5817 93.3802 25.1576 94.4219 23.9531C95.4798 22.7324 96.7656 21.7884 98.2793 21.1211C99.8092 20.4375 101.535 20.0957 103.455 20.0957C105.392 20.0957 107.117 20.4375 108.631 21.1211C110.161 21.7884 111.455 22.7324 112.513 23.9531C113.571 25.1576 114.376 26.5817 114.93 28.2256C115.483 29.8532 115.76 31.6191 115.76 33.5234V34.085C115.76 35.9893 115.483 37.7552 114.93 39.3828C114.376 41.0104 113.571 42.4346 112.513 43.6553C111.455 44.8597 110.169 45.8037 108.655 46.4873C107.142 47.1546 105.424 47.4883 103.504 47.4883C101.567 47.4883 99.8337 47.1546 98.3037 46.4873C96.79 45.8037 95.5042 44.8597 94.4463 43.6553C93.3883 42.4346 92.5827 41.0104 92.0293 39.3828C91.4759 37.7552 91.1992 35.9893 91.1992 34.085ZM97.083 33.5234V34.085C97.083 35.2731 97.2051 36.3962 97.4492 37.4541C97.6934 38.512 98.0758 39.4398 98.5967 40.2373C99.1175 41.0348 99.7848 41.6615 100.599 42.1172C101.412 42.5729 102.381 42.8008 103.504 42.8008C104.594 42.8008 105.538 42.5729 106.336 42.1172C107.15 41.6615 107.817 41.0348 108.338 40.2373C108.859 39.4398 109.241 38.512 109.485 37.4541C109.746 36.3962 109.876 35.2731 109.876 34.085V33.5234C109.876 32.3516 109.746 31.2448 109.485 30.2031C109.241 29.1452 108.851 28.2093 108.313 27.3955C107.793 26.5817 107.125 25.9469 106.312 25.4912C105.514 25.0192 104.562 24.7832 103.455 24.7832C102.348 24.7832 101.388 25.0192 100.574 25.4912C99.7767 25.9469 99.1175 26.5817 98.5967 27.3955C98.0758 28.2093 97.6934 29.1452 97.4492 30.2031C97.2051 31.2448 97.083 32.3516 97.083 33.5234Z" fill="white"/>
<path d="M4.54639 29.7592V48.5192H12.712V41.6224L4.54639 29.7592Z" fill="#6659FF"/>
<path d="M27.9694 36.4594C32.8474 34.3687 35.6882 30.2416 35.6882 24.6144C35.6882 16.1993 29.4167 11 19.394 11H0L11.8363 26.3965V18.0753H18.9116C24.2174 18.0753 26.898 20.4866 26.898 24.6144C26.898 28.6878 24.2174 31.1536 18.9116 31.1536H15.0285L27.0583 48.52H36.3854L27.9694 36.4594Z" fill="white"/>
</svg>