<svg fill="none">

    <symbol id="reader" viewBox="0 0 36 36" xmlns="http://www.w3.org/2000/svg">
        <path
            d="M33.8905 19.236V15.8906C33.8905 15.3081 33.4183 14.8359 32.8358 14.8359C30.657 14.8359 28.6256 15.0198 26.7065 15.3952C25.5877 14.3149 24.2239 13.531 22.747 13.1026C24.3574 11.7472 25.3827 9.7178 25.3827 7.45311C25.3827 3.34342 22.0708 0 17.9999 0C13.929 0 10.6171 3.34342 10.6171 7.45311C10.6171 9.7178 11.6424 11.7472 13.2529 13.1026C11.776 13.531 10.4121 14.3149 9.2934 15.3952C7.37422 15.0198 5.3429 14.8358 3.16406 14.8358C2.58159 14.8358 2.10937 15.3081 2.10937 15.8905V19.236C0.881787 19.6714 0 20.8437 0 22.2186V24.328C0 25.703 0.881787 26.8753 2.10937 27.3106V30.6561C2.10937 31.2386 2.58159 31.7108 3.16406 31.7108C8.67859 31.7108 13.2069 33.0174 17.415 35.8227C17.7676 36.0577 18.2321 36.0583 18.585 35.8227C22.7931 33.0174 27.3213 31.7108 32.8359 31.7108C33.4184 31.7108 33.8906 31.2386 33.8906 30.6561V27.3106C35.1182 26.8753 36 25.703 36 24.328V22.2186C35.9999 20.8437 35.1181 19.6714 33.8905 19.236ZM12.7265 7.45311C12.7265 4.50653 15.0921 2.10937 17.9999 2.10937C20.9077 2.10937 23.2733 4.50653 23.2733 7.45311C23.2733 10.3609 20.9077 12.7265 17.9999 12.7265C15.0921 12.7265 12.7265 10.3609 12.7265 7.45311ZM3.16399 25.3828C2.58243 25.3828 2.1093 24.9096 2.1093 24.3281V22.2187C2.1093 21.6371 2.58243 21.164 3.16399 21.164C3.74554 21.164 4.21867 21.6371 4.21867 22.2187V24.3281C4.21867 24.9096 3.74554 25.3828 3.16399 25.3828ZM16.9452 33.0528C13.1165 30.8632 9.00793 29.7565 4.21867 29.6167V27.3107C5.44626 26.8753 6.32804 25.703 6.32804 24.3281V22.2187C6.32804 20.8437 5.44626 19.6714 4.21867 19.236V16.9602C9.17436 17.1024 13.1578 18.2694 16.9452 20.6808V33.0528ZM17.9999 18.8535C16.0532 17.6252 14.027 16.69 11.8639 16.0328C13.0524 15.2603 14.4516 14.8359 15.8905 14.8359H20.1093C21.5482 14.8359 22.9474 15.2603 24.1359 16.0328C21.9728 16.69 19.9465 17.6252 17.9999 18.8535ZM31.7811 29.6167C26.9919 29.7565 22.8832 30.8635 19.0546 33.0529V20.6817C22.8421 18.27 26.8252 17.1024 31.7811 16.9602V19.236C30.5535 19.6714 29.6717 20.8437 29.6717 22.2187V24.3281C29.6717 25.703 30.5535 26.8753 31.7811 27.3107V29.6167ZM33.8905 24.3281C33.8905 24.9096 33.4174 25.3828 32.8358 25.3828C32.2543 25.3828 31.7811 24.9096 31.7811 24.3281V22.2187C31.7811 21.6371 32.2543 21.164 32.8358 21.164C33.4174 21.164 33.8905 21.6371 33.8905 22.2187V24.3281Z" />
    </symbol>

    <symbol id="teacher" viewBox="0 0 36 36" xmlns="http://www.w3.org/2000/svg">
        <g clip-path="url(#clip0_1532_4)">
            <path
                d="M7.20062 0C4.22291 0.000632794 1.80078 2.42276 1.80078 5.40047C1.80078 8.37819 4.22291 10.7998 7.20062 10.7998C10.1783 10.7998 12.6005 8.37763 12.6005 5.39991C12.6005 2.42212 10.1783 0 7.20062 0ZM7.20062 9.00037C5.21231 9.00037 3.60073 7.38878 3.60073 5.40047C3.60073 3.41217 5.21231 1.80058 7.20062 1.80058C9.18893 1.80058 10.8005 3.41217 10.8005 5.40047C10.8005 7.38878 9.189 9.00037 7.20062 9.00037Z" />
            <path
                d="M34.1996 8.99976H16.2001C15.2059 8.99976 14.4001 9.80551 14.4001 10.7997V12.1743L16.2001 13.0743V10.7997H34.1996V25.1987H16.2001V23.0591L14.4001 22.6098V25.1987C14.4001 26.1929 15.2059 26.9986 16.2001 26.9986H23.6111L19.0284 34.6358C18.7716 35.0612 18.9108 35.615 19.338 35.87C19.7598 36.1286 20.3154 35.9894 20.5721 35.5604L24.2999 29.347V35.0978C24.2999 35.5952 24.7025 35.9978 25.1998 35.9978C25.6972 35.9978 26.0998 35.5952 26.0998 35.0978V29.347L29.8281 35.5598C29.9967 35.8412 30.2955 35.9972 30.5997 35.9972C30.7581 35.9972 30.9177 35.957 31.0623 35.8688C31.4895 35.6138 31.6281 35.0601 31.3718 34.6347L26.7891 26.9975H34.1995C35.1937 26.9975 35.9995 26.1917 35.9995 25.1975V10.7997C35.9995 9.80551 35.1938 8.99976 34.1996 8.99976Z" />
            <path
                d="M31.4644 14.1518C31.3288 13.6737 30.8314 13.3923 30.352 13.5351L19.2457 16.7084C19.1161 16.583 18.971 16.4732 18.8054 16.3898L11.6056 12.7899C11.3554 12.6651 11.08 12.5997 10.8004 12.5997H3.6006C2.73065 12.5997 1.98543 13.2219 1.82948 14.0775L0.0295317 23.9766C-0.0658796 24.5016 0.0763584 25.0421 0.418348 25.4519C0.760338 25.8617 1.26671 26.0987 1.80072 26.0987H2.95086L3.60665 34.3406C3.68103 35.2766 4.46162 35.9978 5.40062 35.9978H9.00051C9.91785 35.9978 10.6882 35.3084 10.7896 34.397L12.3622 20.2452L17.564 21.5454C17.708 21.5814 17.8544 21.5988 18.0002 21.5988C18.3974 21.5988 18.788 21.4673 19.1078 21.2177C19.5446 20.877 19.8002 20.3531 19.8002 19.7988V18.4207L30.8477 15.2641C31.3258 15.1286 31.6018 14.6294 31.4644 14.1518ZM18.0002 19.7994L10.8004 17.9995L9.00044 34.1985H5.40055L4.61335 24.2987H1.80065L3.6006 14.3997H6.30052V19.8751C6.30052 20.3725 6.70312 20.7751 7.20049 20.7751C7.69787 20.7751 8.10047 20.3725 8.10047 19.8751V14.3996H10.8004L18.0002 17.9995V19.7994Z" />
        </g>
        <defs>
            <clipPath id="clip0_1532_4">
                <rect fill="white" />
            </clipPath>
        </defs>
    </symbol>

    <symbol id="users" viewBox="0 0 36 36" xmlns="http://www.w3.org/2000/svg">
        <g clip-path="url(#clip0_1532_20)">
            <path
                d="M18 14.2344C21.373 14.2344 24.1172 11.4902 24.1172 8.11719C24.1172 4.74416 21.373 2 18 2C14.627 2 11.8828 4.74416 11.8828 8.11719C11.8828 11.4902 14.627 14.2344 18 14.2344ZM18 4.10938C20.2099 4.10938 22.0078 5.90727 22.0078 8.11719C22.0078 10.3271 20.2099 12.125 18 12.125C15.7901 12.125 13.9922 10.3271 13.9922 8.11719C13.9922 5.90727 15.7901 4.10938 18 4.10938Z" />
            <path
                d="M30.375 14.2344C32.5074 14.2344 34.2422 12.4996 34.2422 10.3672C34.2422 8.23482 32.5074 6.5 30.375 6.5C28.2426 6.5 26.5078 8.23482 26.5078 10.3672C26.5078 12.4996 28.2426 14.2344 30.375 14.2344ZM30.375 8.60938C31.3443 8.60938 32.1328 9.39793 32.1328 10.3672C32.1328 11.3364 31.3443 12.125 30.375 12.125C29.4057 12.125 28.6172 11.3364 28.6172 10.3672C28.6172 9.39793 29.4057 8.60938 30.375 8.60938Z" />
            <path
                d="M31.2258 16.625H29.5945C27.6723 16.625 26.0129 17.7607 25.2567 19.3919C23.7 17.6925 21.4638 16.625 18.9829 16.625H17.0172C14.5363 16.625 12.3001 17.6925 10.7433 19.3919C9.98712 17.7607 8.32774 16.625 6.40547 16.625H4.77422C2.14172 16.625 0 18.7538 0 21.3704V29.0492C0 30.1852 0.927703 31.1094 2.06803 31.1094H8.51759C8.62573 32.368 9.68407 33.3594 10.9703 33.3594H25.0298C26.3159 33.3594 27.3743 32.368 27.4825 31.1094H33.8584C35.0393 31.1094 36.0001 30.1524 36.0001 28.9761V21.3704C36 18.7538 33.8583 16.625 31.2258 16.625V16.625ZM2.10938 21.3704C2.10938 19.9169 3.30483 18.7344 4.77422 18.7344H6.40547C7.87486 18.7344 9.07031 19.9169 9.07031 21.3704V22.0926C8.36107 23.9393 8.50781 25.046 8.50781 29H2.10938V21.3704ZM25.3828 30.897C25.3828 31.0917 25.2245 31.25 25.0298 31.25H10.9702C10.7755 31.25 10.6172 31.0916 10.6172 30.897V25.1344C10.6172 21.6054 13.4882 18.7344 17.0171 18.7344H18.9828C22.5118 18.7344 25.3828 21.6054 25.3828 25.1343V30.897ZM33.8906 28.9761C33.8906 29.0124 34.2838 29 27.4922 29C27.4922 25.0167 27.6378 23.9362 26.9297 22.0926V21.3704C26.9297 19.9169 28.1251 18.7344 29.5945 18.7344H31.2258C32.6952 18.7344 33.8906 19.9169 33.8906 21.3704V28.9761Z" />
            <path
                d="M5.625 14.2344C7.75737 14.2344 9.49219 12.4996 9.49219 10.3672C9.49219 8.23482 7.75737 6.5 5.625 6.5C3.49263 6.5 1.75781 8.23482 1.75781 10.3672C1.75781 12.4996 3.49263 14.2344 5.625 14.2344ZM5.625 8.60938C6.59426 8.60938 7.38281 9.39793 7.38281 10.3672C7.38281 11.3364 6.59426 12.125 5.625 12.125C4.65574 12.125 3.86719 11.3364 3.86719 10.3672C3.86719 9.39793 4.65574 8.60938 5.625 8.60938Z" />
        </g>
        <defs>
            <clipPath id="clip0_1532_20">
                <rect fill="white" />
            </clipPath>
        </defs>
    </symbol>

    <symbol id="ethereum" viewBox="0 0 30 30" xmlns="http://www.w3.org/2000/svg">
        <path d="M15.0165 19.5458L6.79688 15.6356L15.0165 30L23.2363 15.6356L15.0165 19.5458Z" />
        <path d="M22.3412 12.7217L15.0165 0L7.68359 12.7364L15.0165 9.25781L22.3412 12.7217Z" />
        <path d="M8.31934 14.3868L15.0166 17.5591L21.7252 14.3815L15.0166 11.2095L8.31934 14.3868Z" />
    </symbol>

    <symbol id="ethereum2" viewBox="0 0 24 24" fill="none" xmlns="http://www.w3.org/2000/svg">
        <path d="M6 11.5L11.5 3L17 11.5L11.5 20L6 11.5Z" stroke-width="1.6" stroke-linecap="round"
            stroke-linejoin="round" />
        <path d="M6 11.4L11.5 9L17 11.4L11.5 13L6 11.4Z" stroke-width="1.6" stroke-linecap="round"
            stroke-linejoin="round" />
    </symbol>


    <symbol id="litecoin" viewBox="0 0 30 30" xmlns="http://www.w3.org/2000/svg">
        <path
            d="M13.1953 24.0938L15.1406 16.7578L19.7578 15.0703L20.9062 10.7578L20.8594 10.6641L16.3125 12.3281L19.5938 0H10.3125L6.02344 16.0781L2.46094 17.3906L1.26562 21.8203L4.85156 20.5312L2.32031 30H27.0234L28.5938 24.0938H13.1953Z" />
    </symbol>

    <symbol id="litecoin2" viewBox="0 0 24 24" xmlns="http://www.w3.org/2000/svg">
        <path
            d="M5.75195 19H19V15.7787H10.4703L11.8033 12.5574H17.4444V9.33608H13.137L14.8202 5.26933L11.9605 4L9.75212 9.33608H5V12.5574H8.41835L5.75195 19Z" />
    </symbol>

    <symbol id="spinier" viewBox="0 0 30 30" xmlns="http://www.w3.org/2000/svg">
        <path
            d="M19.8313 29.1929C17.7003 28.0349 16.4385 25.9437 16.4385 23.7386C16.4385 22.5806 16.9412 21.4136 17.5706 20.3724C18.0733 19.4424 18.3198 17.8193 16.5652 17.0063C15.3131 16.3133 13.6751 16.7753 12.9259 17.9363C12.1766 18.8663 11.2977 19.7963 10.1656 20.4894C8.03465 21.6474 5.52081 21.6474 3.38968 20.4894C1.25854 19.3314 0 17.235 0 15.0293C0 12.8235 1.25205 10.7331 3.38919 9.57196C5.52016 8.41396 8.034 8.41396 10.1651 9.57196C11.2972 10.154 12.1759 11.078 12.799 12.1251C13.3017 12.9381 14.6835 13.9851 16.4382 13.0551C17.6903 12.3621 18.0665 10.847 17.4436 9.68896C16.8144 8.64196 16.4382 7.48081 16.4382 6.32281C16.4382 4.11465 17.6903 2.02665 19.831 0.8685C21.9619 -0.289502 24.4758 -0.289502 26.6069 0.8685C28.7381 2.0265 30 4.11765 30 6.32281C30 8.52796 28.7447 10.619 26.6072 11.7801C25.4752 12.3621 24.2199 12.5931 22.8414 12.5931C21.7093 12.5931 20.2075 13.2861 20.2075 15.0293C20.2075 16.4243 21.3396 17.4654 22.8414 17.4654C24.0934 17.4654 25.4752 17.6964 26.6072 18.2784C28.7382 19.4364 30 21.5276 30 23.7326C30 25.9376 28.7447 28.0287 26.6072 29.1869C25.6018 29.7689 24.3496 29.9999 23.2181 29.9999C22.0925 30.0059 20.8307 29.7689 19.8318 29.1929" />
    </symbol>


    <symbol id="spinier2" xmlns="http://www.w3.org/2000/svg" viewBox="0 0 24 24" fill="none">
        <path
            d="M7 15C8.65685 15 10 13.6569 10 12C10 10.3431 8.65685 9 7 9C5.34315 9 4 10.3431 4 12C4 13.6569 5.34315 15 7 15Z"
            stroke-width="2" stroke-linecap="round" stroke-linejoin="round" />
        <path
            d="M17 10C18.6569 10 20 8.65685 20 7C20 5.34315 18.6569 4 17 4C15.3431 4 14 5.34315 14 7C14 8.65685 15.3431 10 17 10Z"
            stroke-width="2" stroke-linecap="round" stroke-linejoin="round" />
        <path
            d="M17 20C18.6569 20 20 18.6569 20 17C20 15.3431 18.6569 14 17 14C15.3431 14 14 15.3431 14 17C14 18.6569 15.3431 20 17 20Z"
            stroke-width="2" stroke-linecap="round" stroke-linejoin="round" />
        <path d="M10 12H13L15 9.5" stroke-width="2" stroke-linecap="round" stroke-linejoin="round" />
        <path d="M15 14.5L13 12" stroke-width="2" stroke-linecap="round" stroke-linejoin="round" />
    </symbol>

    <symbol id="bitcoin" viewBox="0 0 41 41" xmlns="http://www.w3.org/2000/svg">
        <g clip-path="url(#clip0_616_12)">
            <path
                d="M34.1458 19.4903C33.1932 20.7221 31.7559 21.5681 29.8337 22.0279C32.2815 23.2764 33.3571 25.3955 33.0618 28.3854C32.9631 29.4697 32.6634 30.4093 32.1622 31.2058C31.6606 32.0025 30.9837 32.6429 30.129 33.1274C29.2749 33.6125 28.3461 33.9818 27.3445 34.2364C26.3427 34.491 25.1926 34.6759 23.8948 34.7907V41H20.1007V34.9632C19.4436 34.9632 18.4417 34.9468 17.0948 34.914V41H13.3001V34.7907C12.7579 34.7742 11.9613 34.7659 10.9101 34.7659L5.68652 34.7907V30.7497H8.42136C9.66981 30.7497 10.4008 30.1911 10.6143 29.0742V22.0024C10.7788 22.0024 10.9101 21.994 11.0087 21.9776H10.6143V12.0727C10.483 11.2352 10.0067 10.816 9.18531 10.816H6.45064L5.6867 6.3068H10.6147C10.9269 6.3068 11.3783 6.30266 11.9699 6.29523C12.5612 6.28695 13.0045 6.28281 13.3003 6.28281V-0.000259399H17.0956V6.20893C17.7853 6.1921 18.7873 6.18408 20.1014 6.18408V-0.000259399H23.8957V6.28281C25.243 6.3484 26.4379 6.47095 27.4805 6.65227C28.5237 6.83359 29.5219 7.11649 30.4744 7.50278C31.4268 7.88855 32.2234 8.36934 32.8639 8.94429C33.5048 9.51871 34.0341 10.25 34.4537 11.1372C34.8719 12.0244 35.1392 13.0511 35.2538 14.2176C35.4683 16.5003 35.0984 18.2581 34.1458 19.4903ZM17.1686 30.4794C17.2837 30.4794 17.6081 30.4835 18.1419 30.4918C18.6761 30.5003 19.1194 30.5084 19.4725 30.5167C19.8258 30.5248 20.3022 30.5043 20.902 30.455C21.5015 30.4057 22.0066 30.3398 22.4171 30.2579C22.8276 30.1759 23.2798 30.0403 23.7721 29.8514C24.2653 29.6626 24.6593 29.4326 24.9546 29.1616C25.2506 28.8906 25.501 28.5454 25.706 28.1265C25.9116 27.7077 26.0143 27.2273 26.0143 26.6853C26.0143 26.2253 25.9405 25.8063 25.7928 25.4283C25.6454 25.0505 25.4231 24.7343 25.1278 24.4797C24.8324 24.225 24.5279 24.003 24.2157 23.8143C23.9039 23.6255 23.5052 23.4735 23.0208 23.3586C22.5364 23.2435 22.1135 23.1532 21.7523 23.0876C21.3909 23.0218 20.9393 22.9765 20.3971 22.952C19.8549 22.9275 19.4441 22.9108 19.165 22.9027C18.8856 22.8945 18.5038 22.8945 18.019 22.9027C17.5342 22.9108 17.2512 22.9151 17.1689 22.9151L17.1686 30.4794ZM27.5301 13.6999C27.3736 13.3219 27.1727 12.9932 26.9265 12.7137C26.6798 12.435 26.3552 12.1883 25.953 11.9751C25.5508 11.7612 25.1603 11.589 24.7828 11.4576C24.4048 11.3256 23.9488 11.2113 23.4154 11.1124C22.8809 11.0137 22.413 10.9443 22.0102 10.903C21.6079 10.8618 21.1277 10.8291 20.5689 10.8043C20.0106 10.7801 19.5751 10.7676 19.2631 10.7676C18.9509 10.7676 18.5566 10.7721 18.0802 10.7801C17.6036 10.7878 17.3 10.7919 17.1684 10.7919V19.1205C17.2997 19.1205 17.6899 19.1286 18.3389 19.1453C18.988 19.1619 19.5174 19.1696 19.9281 19.1696C20.3388 19.1696 20.9057 19.1453 21.6287 19.0957C22.3511 19.0468 22.9589 18.9731 23.4521 18.8746C23.9447 18.7759 24.4823 18.6241 25.0659 18.4186C25.6489 18.2133 26.1214 17.9629 26.4829 17.6672C26.8443 17.371 27.148 16.9938 27.3943 16.5337C27.6412 16.0739 27.7644 15.5481 27.7644 14.9566C27.7643 14.4962 27.6864 14.078 27.5301 13.6999Z" />
        </g>
        <defs>
            <clipPath id="clip0_616_12">
                <rect width="41" height="41" fill="white" transform="matrix(1 0 0 -1 0 41)" />
            </clipPath>
        </defs>
    </symbol>


    <symbol id="bitcoin2" viewBox="0 0 24 24" xmlns="http://www.w3.org/2000/svg">
        <path
            d="M7.92 12.4444V16.2222H6V18.1111H8.88V20H10.8V18.1111H12.72V20H14.64V18.0629C16.5293 17.8278 18 16.2543 18 14.3333C18 13.0867 17.376 11.9873 16.4256 11.2988C17.1265 10.5962 17.5195 9.65116 17.52 8.66667C17.52 6.91189 16.2922 5.44517 14.64 5.023V3H12.72V4.88889H10.8V3H8.88V4.88889H6V6.77778H7.92V12.4444ZM14.16 16.2222H9.84V12.4444H14.16C15.2189 12.4444 16.08 13.2916 16.08 14.3333C16.08 15.3751 15.2189 16.2222 14.16 16.2222ZM9.84 6.77778H13.68C14.7389 6.77778 15.6 7.62494 15.6 8.66667C15.6 9.70839 14.7389 10.5556 13.68 10.5556H9.84V6.77778Z" />
    </symbol>


    <symbol id="devcoin" viewBox="0 0 24 24" xmlns="http://www.w3.org/2000/svg">
        <path
            d="M5.4075 10.7803C3.6915 10.7803 3.44625 11.8978 3.285 12.575C3.18137 12.988 3.08635 13.4031 3 13.82H9.71025C11.4277 13.82 11.673 12.701 11.8343 12.0245C12.048 11.141 12.1185 10.7795 12.1185 10.7795L5.4075 10.7803ZM14.79 5H8.2365L7.695 8.03525L13.608 8.04275C16.5217 8.04275 17.3805 9.10025 17.3558 10.8537C17.3415 11.7507 16.953 13.2725 16.7843 13.7668C16.3358 15.0815 15.414 16.5785 11.958 16.5748L6.2085 16.5717L5.66475 19.6108H12.2032C14.5095 19.6108 15.4882 19.3408 16.5285 18.8645C18.8317 17.795 20.2035 15.5233 20.7533 12.557C21.57 8.141 20.5522 5 14.79 5Z" />
    </symbol>

    <symbol id="icon-github" viewBox="0 0 32 32" xmlns="http://www.w3.org/2000/svg">
        <path
            d="M16 0.395c-8.836 0-16 7.163-16 16 0 7.069 4.585 13.067 10.942 15.182 0.8 0.148 1.094-0.347 1.094-0.77 0-0.381-0.015-1.642-0.022-2.979-4.452 0.968-5.391-1.888-5.391-1.888-0.728-1.849-1.776-2.341-1.776-2.341-1.452-0.993 0.11-0.973 0.11-0.973 1.606 0.113 2.452 1.649 2.452 1.649 1.427 2.446 3.743 1.739 4.656 1.33 0.143-1.034 0.558-1.74 1.016-2.14-3.554-0.404-7.29-1.777-7.29-7.907 0-1.747 0.625-3.174 1.649-4.295-0.166-0.403-0.714-2.030 0.155-4.234 0 0 1.344-0.43 4.401 1.64 1.276-0.355 2.645-0.532 4.005-0.539 1.359 0.006 2.729 0.184 4.008 0.539 3.054-2.070 4.395-1.64 4.395-1.64 0.871 2.204 0.323 3.831 0.157 4.234 1.026 1.12 1.647 2.548 1.647 4.295 0 6.145-3.743 7.498-7.306 7.895 0.574 0.497 1.085 1.47 1.085 2.963 0 2.141-0.019 3.864-0.019 4.391 0 0.426 0.288 0.925 1.099 0.768 6.354-2.118 10.933-8.113 10.933-15.18 0-8.837-7.164-16-16-16z" />
    </symbol>

    <symbol id="arrow" viewBox="0 0 19 11" xmlns="http://www.w3.org/2000/svg">
        <path d="M8.5 0.5L0 10.5H19L11 0.5H8.5Z" />
    </symbol>

    <symbol id="icon-google" viewBox="0 0 32 32" xmlns="http://www.w3.org/2000/svg">
        <path
            d="M16.319 13.713v5.487h9.075c-0.369 2.356-2.744 6.9-9.075 6.9-5.463 0-9.919-4.525-9.919-10.1s4.456-10.1 9.919-10.1c3.106 0 5.188 1.325 6.375 2.469l4.344-4.181c-2.788-2.612-6.4-4.188-10.719-4.188-8.844 0-16 7.156-16 16s7.156 16 16 16c9.231 0 15.363-6.494 15.363-15.631 0-1.050-0.113-1.85-0.25-2.65l-15.113-0.006z" />
    </symbol>

    <symbol id="icon-facebook" viewBox="0 0 32 32" xmlns="http://www.w3.org/2000/svg">
        <path d="M19 6h5v-6h-5c-3.86 0-7 3.14-7 7v3h-4v6h4v16h6v-16h5l1-6h-6v-3c0-0.542 0.458-1 1-1z" />
    </symbol>

    <symbol id="icon-instagram" viewBox="0 0 32 32" xmlns="http://www.w3.org/2000/svg">
        <path
            d="M16 2.881c4.275 0 4.781 0.019 6.462 0.094 1.563 0.069 2.406 0.331 2.969 0.55 0.744 0.288 1.281 0.638 1.837 1.194 0.563 0.563 0.906 1.094 1.2 1.838 0.219 0.563 0.481 1.412 0.55 2.969 0.075 1.688 0.094 2.194 0.094 6.463s-0.019 4.781-0.094 6.463c-0.069 1.563-0.331 2.406-0.55 2.969-0.288 0.744-0.637 1.281-1.194 1.837-0.563 0.563-1.094 0.906-1.837 1.2-0.563 0.219-1.413 0.481-2.969 0.55-1.688 0.075-2.194 0.094-6.463 0.094s-4.781-0.019-6.463-0.094c-1.563-0.069-2.406-0.331-2.969-0.55-0.744-0.288-1.281-0.637-1.838-1.194-0.563-0.563-0.906-1.094-1.2-1.837-0.219-0.563-0.481-1.413-0.55-2.969-0.075-1.688-0.094-2.194-0.094-6.463s0.019-4.781 0.094-6.463c0.069-1.563 0.331-2.406 0.55-2.969 0.288-0.744 0.638-1.281 1.194-1.838 0.563-0.563 1.094-0.906 1.838-1.2 0.563-0.219 1.412-0.481 2.969-0.55 1.681-0.075 2.188-0.094 6.463-0.094zM16 0c-4.344 0-4.887 0.019-6.594 0.094-1.7 0.075-2.869 0.35-3.881 0.744-1.056 0.412-1.95 0.956-2.837 1.85-0.894 0.888-1.438 1.781-1.85 2.831-0.394 1.019-0.669 2.181-0.744 3.881-0.075 1.713-0.094 2.256-0.094 6.6s0.019 4.887 0.094 6.594c0.075 1.7 0.35 2.869 0.744 3.881 0.413 1.056 0.956 1.95 1.85 2.837 0.887 0.887 1.781 1.438 2.831 1.844 1.019 0.394 2.181 0.669 3.881 0.744 1.706 0.075 2.25 0.094 6.594 0.094s4.888-0.019 6.594-0.094c1.7-0.075 2.869-0.35 3.881-0.744 1.050-0.406 1.944-0.956 2.831-1.844s1.438-1.781 1.844-2.831c0.394-1.019 0.669-2.181 0.744-3.881 0.075-1.706 0.094-2.25 0.094-6.594s-0.019-4.887-0.094-6.594c-0.075-1.7-0.35-2.869-0.744-3.881-0.394-1.063-0.938-1.956-1.831-2.844-0.887-0.887-1.781-1.438-2.831-1.844-1.019-0.394-2.181-0.669-3.881-0.744-1.712-0.081-2.256-0.1-6.6-0.1v0z" />
        <path
            d="M16 7.781c-4.537 0-8.219 3.681-8.219 8.219s3.681 8.219 8.219 8.219 8.219-3.681 8.219-8.219c0-4.537-3.681-8.219-8.219-8.219zM16 21.331c-2.944 0-5.331-2.387-5.331-5.331s2.387-5.331 5.331-5.331c2.944 0 5.331 2.387 5.331 5.331s-2.387 5.331-5.331 5.331z" />
        <path
            d="M26.462 7.456c0 1.060-0.859 1.919-1.919 1.919s-1.919-0.859-1.919-1.919c0-1.060 0.859-1.919 1.919-1.919s1.919 0.859 1.919 1.919z" />
    </symbol>

    <symbol id="icon-linkedin2" viewBox="0 0 32 32" xmlns="http://www.w3.org/2000/svg">
        <path
            d="M12 12h5.535v2.837h0.079c0.77-1.381 2.655-2.837 5.464-2.837 5.842 0 6.922 3.637 6.922 8.367v9.633h-5.769v-8.54c0-2.037-0.042-4.657-3.001-4.657-3.005 0-3.463 2.218-3.463 4.509v8.688h-5.767v-18z" />
        <path d="M2 12h6v18h-6v-18z" />
        <path d="M8 7c0 1.657-1.343 3-3 3s-3-1.343-3-3c0-1.657 1.343-3 3-3s3 1.343 3 3z" />
    </symbol>


    <symbol id="eye-1" xmlns="http://www.w3.org/2000/svg" viewBox="0 0 24 24" fill="none" stroke="currentColor"
        stroke-width="2" stroke-linecap="round" stroke-linejoin="round" class="feather feather-eye">
        <path d="M1 12s4-8 11-8 11 8 11 8-4 8-11 8-11-8-11-8z" />
        <circle cx="12" cy="12" r="3" />
    </symbol>

</svg>